<svg fill="none" viewBox="0 0 21 21" xmlns="http://www.w3.org/2000/svg">
<path d="m13.33 10.5 7.3773-7.3773c0.3891-0.39151 0.3891-1.0237 0-1.4152l-1.4152-1.4162c-0.3915-0.38907-1.0237-0.38907-1.4152 0l-7.3773 7.3783-7.3773-7.3773c-0.39151-0.38907-1.0237-0.38907-1.4152 0l-1.4152 1.4152c-0.38907 0.39151-0.38907 1.0237 0 1.4152l7.3773 7.3773-7.3773 7.3773c-0.38907 0.3915-0.38907 1.0237 0 1.4152l1.4162 1.4152c0.39151 0.3891 1.0237 0.3891 1.4152 0l7.3773-7.3773 7.3773 7.3773c0.3915 0.3891 1.0237 0.3891 1.4152 0l1.4152-1.4152c0.3891-0.3915 0.3891-1.0237 0-1.4152l-7.3783-7.3773z" fill="#FB565A"/>
</svg>
