<?xml version="1.0" encoding="UTF-8"?>
<svg viewBox="0 0 199 68" xmlns="http://www.w3.org/2000/svg">
<path d="m82.143 49.488c0.3493 0 0.6985-0.1047 1.0128-0.1746v2.4447c-0.6286 0.2445-1.3969 0.3842-2.1653 0.3842-1.397 0-2.5145-0.5588-3.0733-1.7812-1.5018 1.2224-3.3877 1.9907-5.7975 1.9907-2.794 0-5.3784-1.5366-5.3784-4.7148 0-3.9464 3.6322-5.1339 6.8452-5.1339 1.3271 0 2.794 0.1746 3.9814 0.454v-0.5587c0-1.9209-1.397-3.248-4.0163-3.248-2.2701 0-4.156 0.5588-5.5181 1.1874v-3.1432c1.2224-0.4191 3.4226-1.0128 5.8673-1.0128 4.3307 0 7.0897 2.0605 7.0897 6.7055v5.4831c0.0349 0.8382 0.5239 1.1176 1.1525 1.1176zm-11.874-2.0954c0 1.5017 1.3271 2.2701 2.8638 2.2701 1.6415 0 3.2131-0.5938 4.4354-1.8161v-2.5844c-0.9429-0.1747-2.2352-0.3842-3.3178-0.3842-1.9209 0-3.9814 0.5937-3.9814 2.5146z"/>
<path d="m93.039 36.147c1.7113 0 3.3877 0.3841 4.7149 1.1874v3.1432c-1.1176-0.8033-2.6892-1.2922-4.2608-1.2922-2.7241 0-5.4483 1.4319-5.4483 5.064 0 3.4925 2.6543 5.0641 5.4133 5.0641 1.6415 0 3.248-0.4889 4.4704-1.1874v3.1781c-1.4668 0.6985-3.1432 1.0477-5.0641 1.0477-4.0861 0-8.2771-2.4796-8.2771-7.9628-0.0349-5.7625 4.3656-8.2421 8.4517-8.2421z"/>
<path d="m115.43 49.488c0.349 0 0.699-0.1047 1.013-0.1746v2.4447c-0.629 0.2445-1.397 0.3842-2.165 0.3842-1.397 0-2.515-0.5588-3.074-1.7812-1.501 1.2224-3.387 1.9907-5.797 1.9907-2.794 0-5.379-1.5366-5.379-4.7148 0-3.9464 3.633-5.1339 6.846-5.1339 1.327 0 2.794 0.1746 3.981 0.454v-0.5587c0-1.9209-1.397-3.248-4.016-3.248-2.27 0-4.156 0.5588-5.518 1.1874v-3.1432c1.222-0.4191 3.422-1.0128 5.867-1.0128 4.331 0 7.09 2.0605 7.09 6.7055v5.4831c0.035 0.8382 0.558 1.1176 1.152 1.1176zm-11.839-2.0954c0 1.5017 1.327 2.2701 2.864 2.2701 1.641 0 3.213-0.5938 4.435-1.8161v-2.5844c-0.943-0.1747-2.235-0.3842-3.318-0.3842-1.956 0-3.981 0.5937-3.981 2.5146z"/>
<path d="m134.42 29.511v22.387h-3.073v-2.4448c-1.187 1.5018-3.004 2.8289-5.867 2.8289-4.645 0-7.614-3.667-7.614-8.1025 0-4.4005 2.969-8.1025 7.614-8.1025 2.689 0 4.47 1.1875 5.518 2.4098v-8.9756h3.422zm-8.347 9.6392c-2.759 0-4.749 2.0605-4.749 5.099 0 3.0035 2.025 5.064 4.749 5.064 2.41 0 4.156-1.5366 4.89-3.213v-3.7369c-0.734-1.6764-2.48-3.2131-4.89-3.2131z"/>
<path d="m145.5 36.147c6.112 0 8.207 4.9243 7.229 9.3597h-11.525c0.384 2.7591 3.074 3.9116 5.868 3.9116 1.851 0 3.562-0.454 4.854-1.0827v2.9337c-1.397 0.6635-3.353 1.0477-5.483 1.0477-4.715 0-8.696-2.6892-8.696-8.1025 0-5.553 4.226-8.0675 7.753-8.0675zm0.175 2.8288c-2.305 0-4.366 1.3621-4.506 3.9465h8.487c0.209-1.3271-0.629-3.9465-3.981-3.9465z"/>
<path d="m156.22 51.898v-15.332h3.038v1.9209c0.838-0.943 2.62-2.3399 5.099-2.3399 2.305 0 3.912 0.9429 4.785 2.4447 1.327-1.3272 3.143-2.4447 5.378-2.4447 4.051 0 5.833 3.0035 5.833 6.1816v9.6042h-3.423v-9.4994c0-1.9907-1.187-3.2131-3.038-3.2131-1.677 0-3.004 1.1176-3.807 2.0606 0.035 0.3492 0.07 0.6984 0.07 1.0477v9.6042h-3.423v-9.4994c0-1.9907-1.187-3.2131-3.038-3.2131s-3.248 1.3271-4.052 2.3749v10.338h-3.422v-0.0349z"/>
<path d="m195.44 36.566h3.562l-7.194 17.427c-1.676 3.9814-3.842 5.3434-6.182 5.3434-0.663 0-1.327-0.1048-2.025-0.2445v-2.8987c0.524 0.1746 1.047 0.2096 1.571 0.2096 1.677 0 2.899-1.1875 3.807-3.5623l0.314-0.7684-7.299-15.472h3.632l5.169 11.56 4.645-11.595z"/>
<path d="m71.281 2.6543v8.7311c1.1176-1.1525 2.8638-2.0954 4.9593-2.0954 3.8766 0 6.3213 2.6193 6.3213 6.2515v9.4994h-3.4226v-9.0454c0-2.4797-1.5367-3.6671-3.5623-3.6671-1.9558 0-3.4226 1.3271-4.2957 2.5495v10.163h-3.4226v-22.387h3.4226z"/>
<path d="m91.921 4.226v5.4482h5.553v3.0035h-5.553v7.0198c0 2.0256 0.943 2.6892 2.8988 2.6892 1.1176 0 2.1304-0.2095 3.1082-0.5937v2.9337c-1.1525 0.4191-2.6193 0.6635-4.121 0.6635-2.9686 0-5.2736-1.4668-5.2736-5.064v-7.6834h-2.7591v-3.0035h2.7591v-4.5751l3.3876-0.83819z"/>
<path d="m101.88 25.041v-15.332h3.038v1.9209c0.839-0.943 2.62-2.34 5.099-2.34 2.305 0 3.912 0.94298 4.785 2.4447 1.327-1.3271 3.143-2.4447 5.378-2.4447 4.052 0 5.833 3.0035 5.833 6.1817v9.6042h-3.423v-9.5344c0-1.9907-1.187-3.213-3.038-3.213-1.677 0-3.004 1.1175-3.807 2.0605 0.035 0.3492 0.07 0.6985 0.07 1.0477v9.6043h-3.423v-9.4995c0-1.9907-1.187-3.213-3.038-3.213s-3.248 1.3271-4.051 2.3748v10.338h-3.423z"/>
<path d="m134.42 2.6543h-3.423v22.387h3.423v-22.387z"/>
<path d="m27.066 0.034924-0.2794-0.034924-26.787 2.794v49.104l26.787 15.926 26.787-15.926v-49.104l-26.508-2.759zm23.015 49.872-23.295 13.865-23.295-13.865v-20.117l23.19 13.795 0.035 2.5146-15.891-9.4646-0.0349 2.4448 15.96 9.6042 0.0349 2.5495-15.96-9.5344-0.0349 2.4447 15.96 9.6043 16.135-9.6392v-2.4447h-0.0349v-7.9279l7.1945-4.2957v20.466h0.0349zm-0.0349-23.085-6.3563 3.737-2.9337 1.7462-14.04-8.312-0.035 2.4447 11.979 7.0897-0.1048 0.0698-0.2445 0.1397-1.7113 1.0128-9.8836-5.8673-0.035 2.4447 7.8231 4.645-1.851 1.2223-0.0349 0.035-5.9022-3.4925-0.035 2.4447 3.8767 2.2701-3.9465 2.3749-23.05-13.725 23.085-13.9 23.4 13.62zm0.0349-2.4097-23.4-13.795-23.19 13.76v-18.405l23.295-2.4447 23.295 2.4447v18.44z"/>
</svg>
