<?xml version="1.0" encoding="UTF-8"?>
<svg viewBox="0 0 160 66" xmlns="http://www.w3.org/2000/svg">
<path d="m48.031 24.783c3.651 3.974 11.616 0.375 9.031-4.922-1.726-3.556-4.312-2.731-6.158-1.82-3.696 1.779-4.395 5.047-2.873 6.742zm-5.926-2.781c2.376 4.866-4.937 8.171-8.292 4.521-1.398-1.555-0.755-4.56 2.636-6.193 1.697-0.836 4.073-1.596 5.656 1.672zm112.12 28.745-0.042 0.0036v0.056c-2.415 17.364-26.188 20.231-26.779 6.599-0.269-6.167 11.593-7.95 23.398-9.088 0.209-5.4068-3.565-4.1946-8.15-2.7221-4.819 1.5478-10.533 3.3831-13.458-1.8789-5.019-9.025 14.632-17.938 16.728-16.102 6.353 5.5616 3.482 6.5913-1.191 8.2674l-0.188 0.0676c-9.49 3.41-5.791 4.107-4.511 3.726 7.569-2.253 14.366-1.04 14.312 8.317 0.615-0.0511 1.218-0.0906 1.814-0.1296 0.653-0.0427 1.298-0.085 1.943-0.1414 2.306-0.215 2.467 2.435-0.161 2.652-1.221 0.1592-2.494 0.2685-3.715 0.3734zm-3.799 0.3826c-9.124 1.028-17.013 2.436-16.153 5.355 1.716 5.573 13.577 6.818 16.153-5.355zm-32.632-16.9c-0.815 5.65-0.794 11.651-0.112 11.688 0.334 0.019 2.304-0.346 2.939-1.507 0.609-1.1177 1.177-2.6569 1.771-4.2703v-1e-4 -1e-4c1.198-3.2498 2.507-6.8008 4.495-7.8165 2.842-1.451-8.088-5.045-9.093 1.906zm-88.907 28.436c-7.919 5.338-14.219 4.159-12.212-10.848 1.45-10.904-0.948-11.521-3.122-9.442-2.845 2.697-4.628 9.723-4.684 16.412 0.25823 1.6071 0.59328 3.2009 1.004 4.776 0.334 1.63-4.907 3.315-7.974 1.011-1.058-0.785-1.895-8.71-1.895-19.444 0-8.824 1.171-14.895 2.23-15.175 8.029-2.191 9.312 1.348 7.583 7.981-0.68763 2.5973-1.1543 5.2481-1.395 7.924 1.673-4.664 4.071-8.485 6.803-10.173 7.416-4.664 13.605-2.473 12.434 6.801-2.007 16.58-2.174 18.827-0.39 17.535 2.231-1.574 3.68 1.238 1.618 2.642zm12.883 2.476c5.41 0.619 11.041-1.068 13.216-4.552 1.839-2.923 0.334-3.935-1.785-1.575-4.46 5.116-9.088 2.811-11.039-2.36l0.502-0.168c9.422-3.766 15.332-13.994 11.597-19.783-5.131-7.981-21.188-0.844-23.196 10.341-1.84 10.341 2.955 17.254 10.705 18.097zm-0.389-11.97c5.855-4.159 7.806-13.32 6.189-15.905-1.728-2.697-5.074 1.517-6.245 11.746-0.111 1.461-0.111 2.865 0.056 4.159zm35.748-2.121c2.063-0.675 4.369-2.552 5.966-5.059 0.447-0.703 0.823-1.335 1.339-2.98-0.0625 0.1991-0.0385 0.1084 0.0209-0.1167 0.1079-0.4091 0.333-1.2618 0.3691-1.6243 0-0.056 0.056-0.339 0.112-0.449 1.225-6.857-3.011-10.736-8.867-7.813-3.289 1.629-7.359 7.813-9.812 14.501 0.613-3.598 1.672-7.026 2.843-10.399 2.007-5.957-1.728-8.992-8.14-7.249-1.06 0.281-3.011 8.093-3.011 16.917 0 10.734 0.558 16.916 1.617 17.704 3.066 2.36 8.53 0.618 7.973-0.956-0.2161-0.5979-0.3796-1.1986-0.5424-1.7967l-0.0156-0.0573c0-0.169 0-0.338-0.055-0.506-1.061-6.971 3.011-16.635 6.356-19.221 0.892-0.731 2.118-0.225 2.286 1.686-2.732 1.349-3.624 3.71-3.624 4.721 0 2.754 2.787 3.428 5.185 2.698z" clip-rule="evenodd" fill-rule="evenodd"/>
<path d="m113.21 27.161c-0.481 2.4929-0.853 5.0056-1.115 7.531-1.059 10.06-0.612 18.996 0.613 22.986 0.726 2.137 3.457 4.946 6.078 2.023 2.843-3.203 5.967-1.349 2.174 2.416-2.34 2.305-6.689 3.878-11.039 3.428-3.123-0.393-5.018-2.415-6.134-5.505-0.444 0.898-0.947 1.685-1.56 2.302-2.119 2.193-4.6851 3.43-7.9741 3.092-6.637-0.73-10.538-7.923-8.699-18.153 1.952-10.791 11.319-14.725 16.728-11.857 0.112-1.349 0.223-2.699 0.335-4.104 0.027-0.1405 0.041-0.281 0.055-0.4215s0.027-0.281 0.055-0.4215c-1.645 0.3617-3.3 0.6805-4.9621 0.956-23.975 3.99-15.722-15.569-9.868-20.683 6.6361-5.733 7.36-1.855 5.297-0.562-3.68 2.36-5.297 15.905 5.241 15.905 1.7291 0 3.3461-0.112 4.9621-0.281 3.291-18.322 13.271-27.203 21.356-24.28 8.976 3.26 8.029 17.535-11.543 25.629zm-10.928 24.393c-0.224-3.542-0.224-7.532-0.167-11.636 0-0.2604 0.015-0.5206 0.029-0.7731 0.014-0.2381 0.027-0.4695 0.027-0.6879-3.3461-1.518-6.6351 3.653-7.4731 10.792-0.946 8.373 2.788 12.813 4.908 10.791 1.6171-1.631 2.4531-6.803 2.6761-8.486zm24.086-43.165c-1.784-2.642-8.307 0.562-12.098 14.332 9.535-4.554 13.326-12.422 12.098-14.332z" clip-rule="evenodd" fill-rule="evenodd"/>
</svg>
